<?xml version="1.0" encoding="utf-8"?>
<!-- Generator: Adobe Illustrator 21.0.2, SVG Export Plug-In . SVG Version: 6.00 Build 0)  -->
<svg version="1.1" id="Lag_1" xmlns="http://www.w3.org/2000/svg" xmlns:xlink="http://www.w3.org/1999/xlink" x="0px" y="0px"
	 viewBox="0 0 500 500" enable-background="new 0 0 500 500" xml:space="preserve">
<g>
	<g>
		<path fill="#5865F2" d="M213.2,55.3v248.2c0,18.2,0.4,39,1.7,53h-33.5l-1.7-35.6h-0.8c-11.5,22.9-36.5,40.3-70,40.3
			c-49.6,0-87.8-42-87.8-104.4c-0.4-68.3,42-110.3,92.1-110.3c31.4,0,52.6,14.8,61.9,31.4h0.8V55.3H213.2z M175.9,234.7
			c0-4.7-0.4-11-1.7-15.7c-5.5-23.8-25.9-43.3-53.9-43.3c-38.6,0-61.5,33.9-61.5,79.3c0,41.6,20.4,75.9,60.7,75.9
			c25,0,47.9-16.5,54.7-44.5c1.3-5.1,1.7-10.2,1.7-16.1V234.7z"/>
	</g>
	<g>
		<path fill="#5865F2" d="M183.4,384.5c0-10.5,7.6-19.1,18.2-19.1c9.3,0,15.8,6.7,15.8,16.5c0,10.7-7.8,18.7-18.5,18.7
			C189.6,400.5,183.4,393.6,183.4,384.5z"/>
		<path fill="#5865F2" d="M240.7,417.6c6.5,3.8,18.5,6.5,28.7,6.5c16.9,0,29.8-8,35.1-33.1l2.7-12.2h-0.4
			c-8.9,12.9-20.2,19.1-34,19.1c-21.6,0-33.8-17.8-34-38.3c0-36,26-72.1,70.9-72.1c14,0,27.6,3.1,37.6,7.6l-16.5,89.4
			c-4,21.1-10.2,38-22.2,48.3c-11.3,9.3-26.7,12-40.3,12c-13.8,0-26.7-2.9-33.8-7.3L240.7,417.6z M319,310.4
			c-2.7-1.3-8.2-2.7-14.2-2.7c-22.7,0-38.7,24.5-38.7,47.8c-0.2,11.3,4.4,22,17.3,22c12.9,0,25.8-15.3,29.6-34.9L319,310.4z"/>
		<path fill="#5865F2" d="M478.9,240.3l-22.7,119.4c-2.4,12.5-4.2,26.7-4.9,38.5h-23.8l2.2-19.3h-0.4c-9.8,14.9-23.1,21.8-37.1,21.8
			c-19.4,0-32.9-15.8-32.9-40.3c0-38,27.8-73,67.6-73c5.6,0,12,1.1,16.7,3.1l9.6-50.3H478.9z M439.8,311.7
			c-3.1-2.2-8.5-4.2-14.9-4.2c-22.2,0-38.7,24.7-38.7,48.9c0,13.1,5.1,23.4,17.3,23.4c11.6,0,25.4-12.7,29.8-35.1L439.8,311.7z"/>
	</g>
</g>
</svg>
